function data()
return {
	subMeshes = {
		{
			indices = {
				normal = {
					count = 5388,
					offset = 58780,
				},
				position = {
					count = 5388,
					offset = 48004,
				},
				tangent = {
					count = 5388,
					offset = 64168,
				},
				uv0 = {
					count = 5388,
					offset = 53392,
				},
			},
		},
	},
	vertexAttr = {
		normal = {
			count = 16164,
			numComp = 3,
			offset = 10288,
		},
		position = {
			count = 6000,
			numComp = 3,
			offset = 0,
		},
		tangent = {
			count = 21552,
			numComp = 4,
			offset = 26452,
		},
		uv0 = {
			count = 4288,
			numComp = 2,
			offset = 6000,
		},
	},
}
end
