function data()
return {
	subMeshes = {
		{
			indices = {
				normal = {
					count = 5376,
					offset = 58672,
				},
				position = {
					count = 5376,
					offset = 47920,
				},
				tangent = {
					count = 5376,
					offset = 64048,
				},
				uv0 = {
					count = 5376,
					offset = 53296,
				},
			},
		},
	},
	vertexAttr = {
		normal = {
			count = 16128,
			numComp = 3,
			offset = 10288,
		},
		position = {
			count = 6000,
			numComp = 3,
			offset = 0,
		},
		tangent = {
			count = 21504,
			numComp = 4,
			offset = 26416,
		},
		uv0 = {
			count = 4288,
			numComp = 2,
			offset = 6000,
		},
	},
}
end
