function data()
return {
	subMeshes = {
		{
			indices = {
				normal = {
					count = 240360,
					offset = 2582352,
				},
				position = {
					count = 240360,
					offset = 2101632,
				},
				tangent = {
					count = 240360,
					offset = 2822712,
				},
				uv0 = {
					count = 240360,
					offset = 2341992,
				},
			},
		},
	},
	vertexAttr = {
		normal = {
			count = 721080,
			numComp = 3,
			offset = 419112,
		},
		position = {
			count = 222888,
			numComp = 3,
			offset = 0,
		},
		tangent = {
			count = 961440,
			numComp = 4,
			offset = 1140192,
		},
		uv0 = {
			count = 196224,
			numComp = 2,
			offset = 222888,
		},
	},
}
end
