function data()
return { 
		subMeshes = {
			{ 
				indices = { 
					normal = { 
						count = 65016,
						offset = 682452,
					},
					position = { 
						count = 65016,
						offset = 552420,
					},
					tangent = { 
						count = 65016,
						offset = 747468,
					},
					uv0 = { 
						count = 65016,
						offset = 617436,
					},
				},
			},
		},
		vertexAttr = { 
			normal = { 
				count = 195048,
				numComp = 3,
				offset = 97308,
			},
			position = { 
				count = 50196,
				numComp = 3,
				offset = 0,
			},
			tangent = { 
				count = 260064,
				numComp = 4,
				offset = 292356,
			},
			uv0 = { 
				count = 47112,
				numComp = 2,
				offset = 50196,
			},
		},
	}
end