function data()
return { 
		subMeshes = {
			{ 
				indices = { 
					normal = { 
						count = 74160,
						offset = 773440,
					},
					position = { 
						count = 74160,
						offset = 625120,
					},
					tangent = { 
						count = 74160,
						offset = 847600,
					},
					uv0 = { 
						count = 74160,
						offset = 699280,
					},
				},
			},
		},
		vertexAttr = { 
			normal = { 
				count = 222480,
				numComp = 3,
				offset = 106000,
			},
			position = { 
				count = 58128,
				numComp = 3,
				offset = 0,
			},
			tangent = { 
				count = 296640,
				numComp = 4,
				offset = 328480,
			},
			uv0 = { 
				count = 47872,
				numComp = 2,
				offset = 58128,
			},
		},
	}
end