function data()
return { 
		subMeshes = {
			{ 
				indices = { 
					normal = { 
						count = 130068,
						offset = 1382976,
					},
					position = { 
						count = 130068,
						offset = 1122840,
					},
					tangent = { 
						count = 130068,
						offset = 1513044,
					},
					uv0 = { 
						count = 130068,
						offset = 1252908,
					},
				},
			},
		},
		vertexAttr = { 
			normal = { 
				count = 390204,
				numComp = 3,
				offset = 212364,
			},
			position = { 
				count = 119028,
				numComp = 3,
				offset = 0,
			},
			tangent = { 
				count = 520272,
				numComp = 4,
				offset = 602568,
			},
			uv0 = { 
				count = 93336,
				numComp = 2,
				offset = 119028,
			},
		},
	}
end