function data()
return {
	subMeshes = {
		{
			indices = {
				normal = {
					count = 9552,
					offset = 100400,
				},
				position = {
					count = 9552,
					offset = 81296,
				},
				tangent = {
					count = 9552,
					offset = 109952,
				},
				uv0 = {
					count = 9552,
					offset = 90848,
				},
			},
		},
	},
	vertexAttr = {
		normal = {
			count = 28656,
			numComp = 3,
			offset = 14432,
		},
		position = {
			count = 8160,
			numComp = 3,
			offset = 0,
		},
		tangent = {
			count = 38208,
			numComp = 4,
			offset = 43088,
		},
		uv0 = {
			count = 6272,
			numComp = 2,
			offset = 8160,
		},
	},
}
end
