function data()
return {
	subMeshes = {
		{
			indices = {
				normal = {
					count = 18456,
					offset = 201344,
				},
				position = {
					count = 18456,
					offset = 164432,
				},
				tangent = {
					count = 18456,
					offset = 219800,
				},
				uv0 = {
					count = 18456,
					offset = 182888,
				},
			},
		},
	},
	vertexAttr = {
		normal = {
			count = 55368,
			numComp = 3,
			offset = 35240,
		},
		position = {
			count = 19848,
			numComp = 3,
			offset = 0,
		},
		tangent = {
			count = 73824,
			numComp = 4,
			offset = 90608,
		},
		uv0 = {
			count = 15392,
			numComp = 2,
			offset = 19848,
		},
	},
}
end
