function data()
return {
	subMeshes = {
		{
			indices = {
				normal = {
					count = 8856,
					offset = 91608,
				},
				position = {
					count = 8856,
					offset = 73896,
				},
				tangent = {
					count = 8856,
					offset = 100464,
				},
				uv0 = {
					count = 8856,
					offset = 82752,
				},
			},
		},
	},
	vertexAttr = {
		normal = {
			count = 26568,
			numComp = 3,
			offset = 11904,
		},
		position = {
			count = 6480,
			numComp = 3,
			offset = 0,
		},
		tangent = {
			count = 35424,
			numComp = 4,
			offset = 38472,
		},
		uv0 = {
			count = 5424,
			numComp = 2,
			offset = 6480,
		},
	},
}
end
