function data()
return { 
		subMeshes = {
			{ 
				indices = { 
					normal = { 
						count = 443328,
						offset = 4725496,
					},
					position = { 
						count = 443328,
						offset = 3838840,
					},
					tangent = { 
						count = 443328,
						offset = 5168824,
					},
					uv0 = { 
						count = 443328,
						offset = 4282168,
					},
				},
			},
		},
		vertexAttr = { 
			normal = { 
				count = 1329984,
				numComp = 3,
				offset = 735544,
			},
			position = { 
				count = 376848,
				numComp = 3,
				offset = 0,
			},
			tangent = { 
				count = 1773312,
				numComp = 4,
				offset = 2065528,
			},
			uv0 = { 
				count = 358696,
				numComp = 2,
				offset = 376848,
			},
		},
	}
end