function data()
return { 
		subMeshes = {
			{ 
				indices = { 
					normal = { 
						count = 449064,
						offset = 4773376,
					},
					position = { 
						count = 449064,
						offset = 3875248,
					},
					tangent = { 
						count = 449064,
						offset = 5222440,
					},
					uv0 = { 
						count = 449064,
						offset = 4324312,
					},
				},
			},
		},
		vertexAttr = { 
			normal = { 
				count = 1347192,
				numComp = 3,
				offset = 731800,
			},
			position = { 
				count = 376608,
				numComp = 3,
				offset = 0,
			},
			tangent = { 
				count = 1796256,
				numComp = 4,
				offset = 2078992,
			},
			uv0 = { 
				count = 355192,
				numComp = 2,
				offset = 376608,
			},
		},
	}
end