function data()
return { 
		subMeshes = {
			{ 
				indices = { 
					normal = { 
						count = 2928,
						offset = 42992,
					},
					position = { 
						count = 2928,
						offset = 37136,
					},
					tangent = { 
						count = 2928,
						offset = 45920,
					},
					uv0 = { 
						count = 2928,
						offset = 40064,
					},
					uv1 = { 
						count = 2928,
						offset = 48848,
					},
				},
			},
			{ 
				indices = { 
					normal = { 
						count = 960,
						offset = 53696,
					},
					position = { 
						count = 960,
						offset = 51776,
					},
					tangent = { 
						count = 960,
						offset = 54656,
					},
					uv0 = { 
						count = 960,
						offset = 52736,
					},
					uv1 = { 
						count = 960,
						offset = 55616,
					},
				},
			},
		},
		vertexAttr = { 
			normal = { 
				count = 11664,
				numComp = 3,
				offset = 7104,
			},
			position = { 
				count = 4032,
				numComp = 3,
				offset = 0,
			},
			tangent = { 
				count = 15552,
				numComp = 4,
				offset = 18768,
			},
			uv0 = { 
				count = 3072,
				numComp = 2,
				offset = 4032,
			},
			uv1 = { 
				count = 2816,
				numComp = 2,
				offset = 34320,
			},
		},
	}
end