function data()
return { 
		subMeshes = {
			{ 
				indices = { 
					normal = { 
						count = 51336,
						offset = 565664,
					},
					position = { 
						count = 51336,
						offset = 462992,
					},
					tangent = { 
						count = 51336,
						offset = 617000,
					},
					uv0 = { 
						count = 51336,
						offset = 514328,
					},
				},
			},
		},
		vertexAttr = { 
			normal = { 
				count = 154008,
				numComp = 3,
				offset = 103640,
			},
			position = { 
				count = 54360,
				numComp = 3,
				offset = 0,
			},
			tangent = { 
				count = 205344,
				numComp = 4,
				offset = 257648,
			},
			uv0 = { 
				count = 49280,
				numComp = 2,
				offset = 54360,
			},
		},
	}
end